<svg xmlns:xlink="http://www.w3.org/1999/xlink" xmlns="http://www.w3.org/2000/svg" version="1.1" viewBox="0 0 600 600" height="600px" width="600px">
    <title>404</title>
    <defs>
        <linearGradient id="linearGradient-1" y2="100%" x2="40.7922325%" y1="98.8%" x1="92.5182204%">
            <stop offset="0%" stop-opacity="0" stop-color="#E0E5EF"></stop>
            <stop offset="100%" stop-color="#E0E5EF"></stop>
        </linearGradient>
        <linearGradient id="linearGradient-2" y2="100%" x2="40.8959812%" y1="98.8%" x1="92.0391457%">
            <stop offset="0%" stop-opacity="0" stop-color="#E0E5EF"></stop>
            <stop offset="100%" stop-color="#E0E5EF"></stop>
        </linearGradient>
        <linearGradient id="linearGradient-3" y2="-8.52586274%" x2="30.2980189%" y1="40.9395482%" x1="79.6200523%">
            <stop offset="0%" stop-color="#A2ABB9"></stop>
            <stop offset="100%" stop-color="#E7EAF0"></stop>
        </linearGradient>
        <linearGradient id="linearGradient-4" y2="39.270721%" x2="11.6000556%" y1="59.1527843%" x1="112.463619%">
            <stop offset="0%" stop-color="#A2ABB9"></stop>
            <stop offset="100%" stop-color="#E7EAF0"></stop>
            <stop offset="100%" stop-color="#E7EAF0"></stop>
        </linearGradient>
        <linearGradient id="linearGradient-5" y2="0%" x2="50%" y1="100%" x1="50%">
            <stop offset="0%" stop-opacity="0.237740043" stop-color="#E8EBF1"></stop>
            <stop offset="100%" stop-color="#A2ABB9"></stop>
        </linearGradient>
        <path id="path-6" d="M230.240234,291.733398 L230.240234,282.407227 L233.34082,282.407227 L233.34082,277.597656 L230.240234,277.597656 L230.240234,254.477539 L225.137695,254.477539 L225.137695,277.597656 L218.008789,277.597656 C217.439128,277.597656 216.97526,277.45931 216.617188,277.182617 C216.145182,276.791992 215.90918,276.336263 215.90918,275.81543 C215.90918,275.636393 215.94987,275.253906 216.03125,274.667969 L216.03125,274.667969 L219.107422,254.477539 L214.053711,254.477539 L210.635742,276.401367 C210.586914,276.726888 210.5625,277.052409 210.5625,277.37793 C210.5625,278.452148 210.774089,279.322917 211.197266,279.990234 C212.222656,281.601562 213.597982,282.407227 215.323242,282.407227 L215.323242,282.407227 L225.137695,282.407227 L225.137695,291.733398 L230.240234,291.733398 Z"></path>
        <path id="path-7" d="M251.736328,386.426758 L251.736328,373.370117 L256.077148,373.370117 L256.077148,366.636719 L251.736328,366.636719 L251.736328,334.268555 L244.592773,334.268555 L244.592773,366.636719 L234.612305,366.636719 C233.814779,366.636719 233.165365,366.443034 232.664062,366.055664 C232.003255,365.508789 231.672852,364.870768 231.672852,364.141602 C231.672852,363.890951 231.729818,363.355469 231.84375,362.535156 L231.84375,362.535156 L236.150391,334.268555 L229.075195,334.268555 L224.290039,364.961914 C224.22168,365.417643 224.1875,365.873372 224.1875,366.329102 C224.1875,367.833008 224.483724,369.052083 225.076172,369.986328 C226.511719,372.242188 228.437174,373.370117 230.852539,373.370117 L230.852539,373.370117 L244.592773,373.370117 L244.592773,386.426758 L251.736328,386.426758 Z"></path>
        <path id="path-8" d="M270.708984,317.226562 C271.509766,317.226562 272.417969,316.992188 273.433594,316.523438 C274.292969,316.132812 275.005859,315.654297 275.572266,315.087891 C276.919922,313.740234 277.59375,311.748047 277.59375,309.111328 L277.59375,309.111328 L277.59375,280.429688 C277.59375,278.28125 276.929688,276.386719 275.601562,274.746094 C274.3125,273.164062 272.300781,272.373047 269.566406,272.373047 L269.566406,272.373047 L257.964844,272.373047 C255.972656,272.373047 254.253906,273.125 252.808594,274.628906 C251.34375,276.171875 250.611328,278.193359 250.611328,280.693359 L250.611328,280.693359 L250.611328,309.257812 C250.611328,311.679688 251.324219,313.583984 252.75,314.970703 C254.3125,316.474609 256.275391,317.226562 258.638672,317.226562 L258.638672,317.226562 L270.708984,317.226562 Z M268.365234,311.455078 L259.693359,311.455078 C257.720703,311.455078 256.734375,310.419922 256.734375,308.349609 L256.734375,308.349609 L256.734375,280.458984 C256.734375,279.794922 256.978516,279.228516 257.466797,278.759766 C257.916016,278.349609 258.550781,278.144531 259.371094,278.144531 L259.371094,278.144531 L268.921875,278.144531 C270.621094,278.144531 271.470703,279.082031 271.470703,280.957031 L271.470703,280.957031 L271.470703,308.349609 C271.470703,309.482422 271.275391,310.273438 270.884766,310.722656 C270.435547,311.210938 269.595703,311.455078 268.365234,311.455078 L268.365234,311.455078 Z"></path>
    </defs>
    <g fill-rule="evenodd" fill="none" stroke-width="1" stroke="none" id="404">
        <path opacity="0.60159418" fill="#F3F3FA" id="背景" d="M297.367308,77 C348.402047,77 395.459601,93.7621592 433.168202,121.998683 L418,122 C410.820298,122 405,127.820298 405,135 L405,135 L405,136 C405,143.179702 410.820298,149 418,149 L418,149 L463.178198,148.999242 C471.748983,158.235916 479.533899,168.191223 486.428804,178.762649 L507.876923,178.762791 C515.60891,178.762791 521.876923,185.030804 521.876923,192.762791 L521.876923,193.544186 C521.876923,199.932 517.59881,205.320607 511.751467,207.001125 L492,207 C483.163444,207 476,214.163444 476,223 L476,223 L476,228 C476,236.836556 483.163444,244 492,244 L492,244 L559.901402,243.999959 C566.852284,245.741603 572,252.03011 572,259.52093 L572,260.413953 C572,269.250509 564.836556,276.413953 556,276.413953 L520.819517,276.412835 C521.518998,283.515523 521.876923,290.716616 521.876923,298 C521.876923,420.05493 421.360544,519 297.367308,519 C198.189346,519 114.031537,455.696384 84.3182822,367.897256 L75.8924419,367.897674 C72.4862578,367.897674 69.725,365.136417 69.725,361.730233 C69.725,359.131567 71.3322058,356.908285 73.6068281,356.000174 L84,356 C91.1797017,356 97,350.179702 97,343 L97,343 L97,342 C97,334.820298 91.1797017,329 84,329 L84,329 L75.0490717,329.000249 C75.0414555,328.94684 75.0338587,328.893426 75.0262812,328.840005 L52.8540698,328.837209 C47.1770963,328.837209 42.575,324.235113 42.575,318.55814 C42.575,312.881166 47.1770963,308.27907 52.8540698,308.27907 L73.0963108,308.280676 C72.9378097,304.873341 72.8576923,301.445881 72.8576923,298 C72.8576923,265.369974 80.0416047,234.391611 92.9374566,206.513874 L57,206.516279 C41.536027,206.516279 29,193.980252 29,178.516279 L29,176.953488 C29,162.030754 40.6738617,149.834597 55.387455,148.999146 L182,149 C187.522847,149 192,144.522847 192,139 C192,133.477153 187.522847,129 182,129 L182,129 L152.69142,128.999011 C152.935414,128.796407 153.179853,128.594307 153.424735,128.392711 L138.848077,128.395349 C128.354667,128.395349 119.848077,119.888759 119.848077,109.395349 L119.848077,108.334884 C119.848077,97.8414735 128.354667,89.3348837 138.848077,89.3348837 L223.230522,89.3331487 C246.439795,81.3435511 271.388251,77 297.367308,77 Z"></path>
        <g fill-rule="nonzero" transform="translate(122.000000, 350.000000)" id="树">
            <path fill="url(#linearGradient-1)" id="路径" d="M58.0342261,43.3864542 C58.1512897,43.8539178 58.297619,44.3505977 58.4732143,44.876494 L58.8244047,46.2788845 C58.9414682,46.746348 59,47.1261621 59,47.4183267 C59,49.0544489 58.5610119,50.500664 57.6830357,51.7569721 C56.8050595,53.0132802 55.6636905,53.933599 54.2589286,54.5179283 C53.7321429,54.5763612 53.1760913,54.6055777 52.5907738,54.6055777 C52.1225198,54.6640106 51.5957341,54.693227 51.0104167,54.693227 L49.3422619,54.693227 L35.6458333,54.8685259 L35.6458333,69.505976 C35.6458333,71.6679947 35.6897321,73.8446215 35.7775297,76.0358565 C35.8653273,78.2270916 35.9677579,80.1992032 36.0848214,81.9521912 C36.2018849,84.0557769 36.3482143,86.0717131 36.5238095,88 L23.8809524,88 L24.1443452,84.5816733 C24.202877,83.2377159 24.2614087,81.4116866 24.3199405,79.1035857 C24.3784723,76.7954847 24.4077382,73.7131474 24.4077381,69.8565737 L24.4077381,56.4462151 C23.4126984,57.3227092 22.3005953,57.7609562 21.0714286,57.7609562 C20.0763889,57.7609562 19.2130457,57.5272244 18.4813989,57.0597609 C17.749752,56.5922974 17.1498016,55.9495352 16.6815476,55.1314741 L6.7604167,54.6055777 C4.82886905,54.1381142 3.21924603,53.1593625 1.93154762,51.6693227 C0.643849205,50.1792828 0,48.4116866 0,46.3665339 C0,46.0159362 0.0292658638,45.6945551 0.0877975915,45.4023904 C0.146329319,45.1102257 0.234126939,44.818061 0.351190452,44.5258964 L2.54613093,39.4422311 C2.66319444,38.1567065 3.02901785,36.9588314 3.64360117,35.8486056 C4.25818448,34.7383798 5.0337301,33.7742364 5.97023803,32.9561753 L19.7544642,7.45019919 L19.8422618,7.45019919 C20.954365,5.40504648 22.2713292,3.65205843 23.7931546,2.19123506 C25.31498,0.730411687 27.2757935,0 29.6755951,0 C31.7827379,0 33.6703867,0.55511288 35.3385415,1.66533864 C37.0066963,2.7755644 38.2504959,4.23638777 39.0699404,6.04780876 L50.1324403,27.6972112 C52.1225197,28.3984064 53.7614086,29.625498 55.049107,31.378486 C56.3368054,33.131474 56.9806546,35.1474103 56.9806546,37.4262948 C56.9806546,38.3612217 56.8343252,39.3545816 56.5416665,40.4063745 L58.0342261,43.3864542 Z"></path>
            <path fill="url(#linearGradient-1)" id="路径" d="M368.034226,43.3864542 C368.15129,43.8539178 368.297619,44.3505977 368.473214,44.876494 L368.824405,46.2788845 C368.941468,46.746348 369,47.1261621 369,47.4183267 C369,49.0544489 368.561012,50.500664 367.683036,51.7569721 C366.805059,53.0132802 365.66369,53.933599 364.258929,54.5179283 C363.732143,54.5763612 363.176091,54.6055777 362.590774,54.6055777 C362.12252,54.6640106 361.595734,54.693227 361.010417,54.693227 L359.342262,54.693227 L345.645833,54.8685259 L345.645833,69.505976 C345.645833,71.6679947 345.689732,73.8446215 345.77753,76.0358565 C345.865327,78.2270916 345.967758,80.1992032 346.084821,81.9521912 C346.201885,84.0557769 346.348214,86.0717131 346.52381,88 L333.880952,88 L334.144345,84.5816733 C334.202877,83.2377159 334.261409,81.4116866 334.319941,79.1035857 C334.378472,76.7954847 334.407738,73.7131474 334.407738,69.8565737 L334.407738,56.4462151 C333.412698,57.3227092 332.300595,57.7609562 331.071429,57.7609562 C330.076389,57.7609562 329.213046,57.5272244 328.481399,57.0597609 C327.749752,56.5922974 327.149802,55.9495352 326.681548,55.1314741 L316.760417,54.6055777 C314.828869,54.1381142 313.219246,53.1593625 311.931548,51.6693227 C310.643849,50.1792828 310,48.4116866 310,46.3665339 C310,46.0159362 310.029266,45.6945551 310.087798,45.4023904 C310.146329,45.1102257 310.234127,44.818061 310.35119,44.5258964 L312.546131,39.4422311 C312.663194,38.1567065 313.029018,36.9588314 313.643601,35.8486056 C314.258184,34.7383798 315.03373,33.7742364 315.970238,32.9561753 L329.754464,7.45019919 L329.842262,7.45019919 C330.954365,5.40504648 332.271329,3.65205843 333.793155,2.19123506 C335.31498,0.730411687 337.275793,0 339.675595,0 C341.782738,0 343.670387,0.55511288 345.338542,1.66533864 C347.006696,2.7755644 348.250496,4.23638777 349.06994,6.04780876 L360.13244,27.6972112 C362.12252,28.3984064 363.761409,29.625498 365.049107,31.378486 C366.336805,33.131474 366.980655,35.1474103 366.980655,37.4262948 C366.980655,38.3612217 366.834325,39.3545816 366.541666,40.4063745 L368.034226,43.3864542 Z"></path>
            <path fill="url(#linearGradient-2)" id="路径" d="M331.247024,53.0189244 C331.338294,53.3854582 331.452381,53.7749005 331.589286,54.187251 L331.863095,55.2868526 C331.954365,55.6533865 332,55.9511952 332,56.1802789 C332,57.4631474 331.657738,58.5971116 330.973214,59.5821713 C330.28869,60.5672311 329.39881,61.2888446 328.303571,61.747012 C327.892857,61.7928287 327.459325,61.815737 327.002976,61.815737 C326.637897,61.8615538 326.227183,61.8844621 325.770833,61.8844621 L324.470238,61.8844621 L313.791667,62.0219123 L313.791667,73.4990039 C313.791667,75.1942231 313.825893,76.9008964 313.894345,78.6190239 C313.962798,80.3371514 314.042659,81.8834661 314.133929,83.2579681 C314.225198,84.9073705 314.339286,86.4880478 314.47619,88 L304.619048,88 L304.824405,85.3197211 C304.87004,84.2659363 304.915675,82.8341634 304.96131,81.0244024 C305.006945,79.2146414 305.029762,76.7978088 305.029762,73.7739044 L305.029762,63.2589642 C304.253968,63.9462152 303.386905,64.2898407 302.428571,64.2898407 C301.652778,64.2898407 300.979663,64.1065737 300.409226,63.7400398 C299.83879,63.3735059 299.371032,62.8695219 299.005952,62.2280876 L291.270833,61.815737 C289.764881,61.4492032 288.509921,60.6817729 287.505952,59.5134462 C286.501984,58.3451195 286,56.9591633 286,55.3555777 C286,55.0806773 286.022817,54.8286852 286.068452,54.5996016 C286.114087,54.3705179 286.18254,54.1414342 286.27381,53.9123506 L287.985119,49.9262948 C288.076389,48.9183267 288.361607,47.9790837 288.840774,47.1085658 C289.31994,46.2380478 289.924603,45.4820717 290.654762,44.8406374 L301.401786,24.8416335 L301.470238,24.8416335 C302.337301,23.2380478 303.364087,21.8635458 304.550595,20.7181275 C305.737103,19.5727092 307.265873,19 309.136905,19 C310.779762,19 312.251488,19.435259 313.552083,20.3057769 C314.852678,21.1762948 315.822421,22.3217131 316.461309,23.7420319 L325.086309,40.7171315 C326.637897,41.2669323 327.915674,42.2290837 328.919643,43.6035856 C329.923611,44.9780876 330.425595,46.5587649 330.425595,48.3456175 C330.425595,49.0786852 330.311508,49.8575697 330.083333,50.6822709 L331.247024,53.0189244 Z"></path>
        </g>
        <path fill="#E7EAF0" id="形状结合" d="M284.5,415 C345.879626,415 401.152405,420.00678 439.78802,428.003897 C477.575063,428.25539 508,439.574053 508,453.5 C508,464.536605 488.890416,473.935603 462.149089,477.485699 C455.766823,479.373982 448.582636,481.153843 440.691453,482.807922 C440.896873,483.861698 441,484.926358 441,486 C441,510.300529 388.1696,530 323,530 C264.367989,530 215.723701,514.054651 206.554085,493.159086 C128.319357,487.218328 73,472.596236 73,455.5 C73,433.132468 167.691775,415 284.5,415 Z"></path>
        <g fill-rule="nonzero" transform="translate(79.814431, 108.421835)" id="无网络">
            <g transform="translate(181.872592, 208.803083) rotate(-20.000000) translate(-181.872592, -208.803083) translate(51.998310, 33.869856)" id="编组">
                <polygon points="116.302712 4 121.496355 4 124.093176 37.3315034 113.705891 37.3315034" fill="#BFC3C9" id="路径"></polygon>
                <rect rx="36.3554957" height="77.7735079" width="72.7109914" y="26.2210023" x="82.5440377" fill="url(#linearGradient-3)" id="矩形"></rect>
                <ellipse ry="33.3315034" rx="77.9046337" cy="78.0147374" cx="120.267614" fill="#A2ABB9" id="椭圆形"></ellipse>
                <ellipse ry="33.3315034" rx="77.9046337" cy="81.7735079" cx="118.899533" fill="url(#linearGradient-4)" id="椭圆形备份"></ellipse>
                <ellipse ry="16.6657517" rx="46.7427802" cy="84.5511332" cx="118.899533" fill="#A2ABB9" id="椭圆形"></ellipse>
                <polygon points="72.1567532 81.7735079 165.642314 81.7735079 259.748565 349.866453 2.15243692e-14 308.438803" opacity="0.5" fill="url(#linearGradient-5)" id="路径"></polygon>
                <ellipse ry="4" rx="3.73962772" cy="4" cx="118.899533" fill="#A2ABB9" id="椭圆形"></ellipse>
            </g>
            <ellipse ry="9" rx="34.5" cy="387.676908" cx="223.685569" fill="#D1D6E2" id="椭圆形"></ellipse>
            <path opacity="0.65" fill="#A2ABB9" id="路径" d="M232.509489,82.6373603 L232.509489,82.5739312 C228.753448,71.9869285 216.531224,67.0179351 206.153664,68.5436324 C213.844707,63.7603958 226.54451,62.4850171 232.507371,69.8190111 L232.507371,69.8824403 C238.469173,62.6118754 251.229336,63.823825 258.861078,68.6070616 C248.483518,67.1402627 236.263412,72.1183174 232.507371,82.6373603 L232.509489,82.6373603 Z"></path>
            <path opacity="0.65" fill="#A2ABB9" id="路径" d="M249.599288,50.5147263 L249.599288,50.4744508 C247.39199,44.2414596 240.192303,41.3082873 234.08458,42.2137932 C238.613436,39.3972811 246.089684,38.6473223 249.600586,42.9651408 L249.600586,43.0026388 C253.106295,38.7223182 260.622794,39.4361679 265.116593,42.2512911 C259.014063,41.3874497 251.813078,44.3164555 249.600586,50.5119487 L249.599288,50.5147263 Z"></path>
            <path opacity="0.35" fill="#909AA9" id="路径" d="M291.831524,45.3166915 L291.831524,45.290304 C290.298101,40.9697079 285.310906,38.9406526 281.076789,39.5642295 C284.215048,37.6129477 289.398303,37.092143 291.831524,40.0850342 L291.831524,40.1114217 C294.264745,37.1449179 299.471372,37.6393352 302.586259,39.5906169 C298.352142,38.9920387 293.367544,41.0224828 291.831524,45.3166915 L291.831524,45.3166915 Z"></path>
            <path opacity="0.35" fill="#909AA9" id="路径" d="M269.758544,23.3740007 L269.758544,23.3476133 C268.225122,19.0270172 263.237927,16.9979619 259.00381,17.6215388 C262.142068,15.670257 267.325323,15.1494523 269.758544,18.1423435 L269.758544,18.1687309 C272.191766,15.2022271 277.398392,15.6966444 280.513279,17.6479262 C276.279162,17.049348 271.294564,19.079792 269.758544,23.3740007 L269.758544,23.3740007 Z"></path>
            <path opacity="0.35" fill="#909AA9" id="路径" d="M328.78299,47.7870983 L328.78299,47.7690437 C327.72089,44.7747637 324.261925,43.3665077 321.327517,43.7998172 C323.503653,42.4471137 327.096355,42.0860224 328.78299,44.1609085 L328.78299,44.1789631 C330.470924,42.1221315 334.079207,42.4651683 336.238464,43.8178718 C333.304056,43.401228 329.84509,44.8108728 328.78299,47.7870983 Z"></path>
        </g>
        <g fill-rule="nonzero" transform="translate(290.927136, 424.228671) rotate(-18.000000) translate(-290.927136, -424.228671) translate(198.985941, 365.399711)" id="盒子">
            <polygon points="165.90202 10.4523369 82.9020199 0 82.9020199 41.4501021 164.576139 51" fill="#A2ABB9" id="路径"></polygon>
            <polygon points="16.8056247 13.691987 82.7954227 0.177373089 82.8056247 46.7441824 16.8056247 60.1773731" fill="#C0C7D2" id="路径"></polygon>
            <polygon points="93.9453689 30.8225387 164.945369 12.4913235 164.945369 99.1601082 93.9453689 117.491323" fill="#A2ABB9" id="路径"></polygon>
            <polygon points="17.9060614 14.9945073 94.9060614 30.5164465 94.4580969 117.657919 17.9060614 100.373636" fill="#C0C7D2" id="路径"></polygon>
            <polygon points="95 30.7067113 16.6600471 13.8913902 8.52651283e-14 44.8649546 79.6707832 63.8913902" fill="#D1D6E2" id="路径"></polygon>
            <polygon points="95 30.7067113 165.847472 11.065193 183.88239 41.6330605 116.024976 64.065193" fill="#C0C7D2" id="路径"></polygon>
        </g>
        <g transform="translate(221.951660, 273.105469) rotate(15.000000) translate(-221.951660, -273.105469)" fill-rule="nonzero" id="4">
            <use xlink:href="#path-6" fill="#131313"></use>
            <use xlink:href="#path-6" fill="#909AA9"></use>
        </g>
        <g transform="translate(240.132324, 360.347656) rotate(-15.000000) translate(-240.132324, -360.347656)" fill-rule="nonzero" id="4">
            <use xlink:href="#path-7" fill="#131313"></use>
            <use xlink:href="#path-7" fill="#909AA9"></use>
        </g>
        <g transform="translate(264.102539, 294.799805) rotate(15.000000) translate(-264.102539, -294.799805)" fill-rule="nonzero" id="0">
            <use xlink:href="#path-8" fill="#131313"></use>
            <use xlink:href="#path-8" fill="#909AA9"></use>
        </g>
        <path fill-rule="nonzero" fill="#909AA9" id="Opps…" d="M355.168431,239.495029 C358.408431,239.495029 360.988431,238.445029 362.878431,236.345029 C364.678431,234.305029 365.578431,231.665029 365.578431,228.395029 C365.578431,225.095029 364.678431,222.425029 362.878431,220.415029 C360.988431,218.285029 358.408431,217.235029 355.168431,217.235029 C351.898431,217.235029 349.318431,218.285029 347.458431,220.445029 C345.658431,222.485029 344.788431,225.125029 344.788431,228.395029 C344.788431,231.635029 345.658431,234.275029 347.458431,236.315029 C349.318431,238.415029 351.898431,239.495029 355.168431,239.495029 Z M355.168431,236.615029 C352.888431,236.615029 351.118431,235.835029 349.858431,234.335029 C348.658431,232.865029 348.058431,230.885029 348.058431,228.395029 C348.058431,225.875029 348.658431,223.895029 349.858431,222.425029 C351.118431,220.865029 352.888431,220.115029 355.168431,220.115029 C357.448431,220.115029 359.218431,220.835029 360.448431,222.335029 C361.648431,223.805029 362.278431,225.815029 362.278431,228.395029 C362.278431,230.945029 361.648431,232.955029 360.448431,234.395029 C359.218431,235.865029 357.448431,236.615029 355.168431,236.615029 Z M371.758431,245.015029 L371.758431,236.795029 C373.018431,238.595029 374.578431,239.495029 376.498431,239.495029 C378.718431,239.495029 380.488431,238.685029 381.748431,237.065029 C382.918431,235.565029 383.518431,233.675029 383.518431,231.395029 C383.518431,228.995029 382.918431,227.075029 381.718431,225.575029 C380.398431,223.955029 378.628431,223.145029 376.348431,223.145029 C374.248431,223.145029 372.628431,223.895029 371.548431,225.425029 L371.548431,223.565029 L368.578431,223.565029 L368.578431,245.015029 L371.758431,245.015029 Z M375.778431,236.915029 C374.578431,236.915029 373.618431,236.435029 372.898431,235.505029 C372.058431,234.485029 371.668431,233.135029 371.668431,231.485029 L371.668431,231.215029 C371.668431,229.625029 371.998431,228.335029 372.658431,227.375029 C373.408431,226.265029 374.488431,225.725029 375.868431,225.725029 C377.428431,225.725029 378.568431,226.265029 379.318431,227.405029 C379.918431,228.365029 380.248431,229.685029 380.248431,231.395029 C380.248431,233.105029 379.888431,234.425029 379.228431,235.385029 C378.478431,236.405029 377.338431,236.915029 375.778431,236.915029 Z M389.698431,245.015029 L389.698431,236.795029 C390.958431,238.595029 392.518431,239.495029 394.438431,239.495029 C396.658431,239.495029 398.428431,238.685029 399.688431,237.065029 C400.858431,235.565029 401.458431,233.675029 401.458431,231.395029 C401.458431,228.995029 400.858431,227.075029 399.658431,225.575029 C398.338431,223.955029 396.568431,223.145029 394.288431,223.145029 C392.188431,223.145029 390.568431,223.895029 389.488431,225.425029 L389.488431,223.565029 L386.518431,223.565029 L386.518431,245.015029 L389.698431,245.015029 Z M393.718431,236.915029 C392.518431,236.915029 391.558431,236.435029 390.838431,235.505029 C389.998431,234.485029 389.608431,233.135029 389.608431,231.485029 L389.608431,231.215029 C389.608431,229.625029 389.938431,228.335029 390.598431,227.375029 C391.348431,226.265029 392.428431,225.725029 393.808431,225.725029 C395.368431,225.725029 396.508431,226.265029 397.258431,227.405029 C397.858431,228.365029 398.188431,229.685029 398.188431,231.395029 C398.188431,233.105029 397.828431,234.425029 397.168431,235.385029 C396.418431,236.405029 395.278431,236.915029 393.718431,236.915029 Z M410.458431,239.495029 C415.048431,239.495029 417.358431,237.845029 417.358431,234.575029 C417.358431,233.195029 416.728431,232.115029 415.498431,231.335029 C414.658431,230.795029 413.338431,230.285029 411.568431,229.865029 C410.008431,229.475029 408.988431,229.175029 408.448431,228.935029 C407.608431,228.545029 407.188431,228.095029 407.188431,227.555029 C407.188431,226.955029 407.458431,226.475029 408.028431,226.175029 C408.508431,225.875029 409.228431,225.755029 410.188431,225.755029 C411.268431,225.755029 412.108431,225.935029 412.648431,226.295029 C413.158431,226.625029 413.518431,227.195029 413.758431,228.035029 L416.848431,228.035029 C416.488431,224.765029 414.268431,223.145029 410.248431,223.145029 C408.388431,223.145029 406.858431,223.535029 405.688431,224.345029 C404.518431,225.125029 403.948431,226.235029 403.948431,227.645029 C403.948431,228.965029 404.548431,230.015029 405.748431,230.765029 C406.468431,231.245029 407.758431,231.695029 409.588431,232.115029 C411.178431,232.475029 412.228431,232.775029 412.708431,233.015029 C413.608431,233.435029 414.088431,234.035029 414.088431,234.785029 C414.088431,236.165029 412.828431,236.885029 410.368431,236.885029 C409.168431,236.885029 408.328431,236.675029 407.788431,236.285029 C407.248431,235.865029 406.858431,235.115029 406.678431,234.065029 L403.558431,234.065029 C403.918431,237.665029 406.198431,239.495029 410.458431,239.495029 Z M423.238431,239.075029 C423.838431,239.075029 424.378431,238.865029 424.828431,238.475029 C425.248431,238.055029 425.458431,237.545029 425.458431,236.915029 C425.458431,236.285029 425.248431,235.775029 424.828431,235.385029 C424.408431,234.965029 423.868431,234.785029 423.238431,234.785029 C422.638431,234.785029 422.128431,234.965029 421.708431,235.385029 C421.258431,235.775029 421.048431,236.285029 421.048431,236.915029 C421.048431,237.515029 421.258431,238.025029 421.708431,238.445029 C422.128431,238.865029 422.638431,239.075029 423.238431,239.075029 Z M433.258431,239.075029 C433.858431,239.075029 434.398431,238.865029 434.848431,238.475029 C435.268431,238.055029 435.478431,237.545029 435.478431,236.915029 C435.478431,236.285029 435.268431,235.775029 434.848431,235.385029 C434.428431,234.965029 433.888431,234.785029 433.258431,234.785029 C432.658431,234.785029 432.148431,234.965029 431.728431,235.385029 C431.278431,235.775029 431.068431,236.285029 431.068431,236.915029 C431.068431,237.515029 431.278431,238.025029 431.728431,238.445029 C432.148431,238.865029 432.658431,239.075029 433.258431,239.075029 Z M443.248431,239.075029 C443.848431,239.075029 444.388431,238.865029 444.808431,238.475029 C445.228431,238.055029 445.468431,237.545029 445.468431,236.915029 C445.468431,236.285029 445.258431,235.775029 444.838431,235.385029 C444.418431,234.965029 443.878431,234.785029 443.248431,234.785029 C442.648431,234.785029 442.108431,234.965029 441.688431,235.385029 C441.268431,235.775029 441.058431,236.285029 441.058431,236.915029 C441.058431,237.515029 441.268431,238.025029 441.688431,238.445029 C442.108431,238.865029 442.648431,239.075029 443.248431,239.075029 Z"></path>
    </g>
</svg>
