<svg t="1647872621659" class="icon" viewBox="0 0 1024 1024" version="1.1" xmlns="http://www.w3.org/2000/svg" p-id="1480" width="200" height="200"><path d="M512 512m-448 0a448 448 0 1 0 896 0 448 448 0 1 0-896 0Z" fill="#FA5151" p-id="1481"></path><path d="M557.3 512l113.1-113.1c12.5-12.5 12.5-32.8 0-45.3s-32.8-12.5-45.3 0L512 466.7 398.9 353.6c-12.5-12.5-32.8-12.5-45.3 0s-12.5 32.8 0 45.3L466.7 512 353.6 625.1c-12.5 12.5-12.5 32.8 0 45.3 6.2 6.2 14.4 9.4 22.6 9.4s16.4-3.1 22.6-9.4L512 557.3l113.1 113.1c6.2 6.2 14.4 9.4 22.6 9.4s16.4-3.1 22.6-9.4c12.5-12.5 12.5-32.8 0-45.3L557.3 512z" fill="#FFFFFF" p-id="1482"></path></svg>
