<svg t="1647783989469" class="icon" viewBox="0 0 1024 1024" version="1.1" xmlns="http://www.w3.org/2000/svg" p-id="2932" width="200" height="200"><path d="M531.998438 592.833685h-39.996876c-101.992032 0-184.785564-82.793532-184.785563-184.785564V99.272244L509.600187 28.077806l207.583783 71.194438V408.048121c-0.399969 101.992032-83.193501 184.785564-185.185532 184.785564zM320.014999 108.471526V408.048121c0 94.792594 77.193969 171.986564 171.986563 171.986564h39.996876c94.792594 0 171.986564-77.193969 171.986563-171.986564V108.471526l-194.384814-66.794782L320.014999 108.471526z" fill="#4A555F" p-id="2933"></path><path d="M492.001562 564.435903c-86.393251 0-156.387782-70.3945-156.387782-156.387782V119.270682l173.986407-61.195219 179.186002 61.595188V408.048121c0 86.393251-70.3945 156.387782-156.387783 156.387782H492.001562z" fill="#FFD552" p-id="2934"></path><path d="M634.790407 876.011562H389.209593l8.399344-10.799157c43.996563-55.195688 68.394657-124.390282 68.394656-195.184751v-92.392782l7.199438 0.799938c6.3995 0.799938 12.399031 1.199906 18.798531 1.199906h39.996876c6.3995 0 12.799-0.399969 18.798531-1.199906l7.199438-0.799938v92.392782c0 35.19725 5.999531 69.994532 17.598625 103.591907 11.599094 33.197406 28.79775 63.995 50.796031 91.592844l8.399344 10.799157z m-218.782908-13.198969h191.985002c-19.1985-25.997969-33.997344-54.39575-44.796501-84.793376-11.999063-34.797281-18.398563-71.194438-18.398562-107.591594v-77.593938c-4.399656 0.399969-8.799313 0.399969-13.198969 0.399969h-39.996875c-4.399656 0-8.799313 0-13.198969-0.399969v77.593938c0.399969 68.794625-21.598313 136.789313-62.395126 192.38497z" fill="#4A555F" p-id="2935"></path><path d="M444.405281 847.61378c32.397469-53.195844 49.596125-114.791032 49.596125-177.586126V608.032497h35.597219v61.995157c0 38.397 6.3995 76.394032 19.1985 112.791188 7.999375 22.798219 17.998594 44.396532 30.397625 64.794938h-134.789469z" fill="#FFD552" p-id="2936"></path><path d="M716.784001 1024H307.215999v-161.187407h409.967971V1024zM320.014999 1010.801031h383.970002V876.011562H320.014999v134.789469z" fill="#4A555F" p-id="2937"></path><path d="M335.61378 891.210374h353.172409v104.391845H335.61378z" fill="#F68F6F" p-id="2938"></path><path d="M325.614561 451.244747l-8.399343-0.399969C186.825404 444.045309 183.225685 336.053746 183.225685 334.85384V175.266307H320.014999v45.596438H228.822123v113.991095c0.399969 6.3995 4.399656 63.595032 85.593313 70.3945l5.999532 0.399969v5.999531c0 10.399188 1.199906 20.798375 3.599718 31.197563l1.599875 8.399344zM196.424654 188.465276v146.388564c0 0.799938 3.599719 91.992813 112.791189 101.992031-1.199906-6.3995-1.599875-13.198969-1.999844-19.598468-88.393094-10.399188-91.592844-79.593782-91.592845-82.393563V207.663776h91.192876v-19.1985H196.424654zM698.385439 451.244747l1.599875-8.399344c1.999844-10.399188 3.19975-20.798375 3.599718-31.197563v-5.999531l5.999532-0.399969c80.793688-6.799469 85.193344-63.995 85.593313-70.3945V221.262714H703.985001V175.266307h136.789314v159.587533c0 4.799625-5.999531 108.791501-133.589564 115.590969l-8.799312 0.799938z m18.398562-33.597376c-0.399969 6.3995-1.199906 13.198969-1.999844 19.598469 107.991563-9.999219 112.791188-98.392313 112.791189-102.392V188.465276h-110.391376v19.1985h91.192876v127.190064c0 3.19975-3.599719 72.394344-91.592845 82.793531z" fill="#4A555F" p-id="2939"></path><path d="M665.188032 966.804468H358.811968V920.008124h305.976095v46.796344zM372.010937 953.6055h279.978126v-20.798376H372.010937v20.798376z" fill="#4A555F" p-id="2940"></path><path d="M925.56769 270.058902h35.997188v13.198968h-35.997188zM982.763222 270.058902h35.997187v13.198968h-35.997187zM5.239591 270.058902h35.997187v13.198968h-35.997187zM62.435122 270.058902h35.997188v13.198968h-35.997188zM833.546879 483.550223l60.239294 60.235294-9.331271 9.33527-60.239294-60.239293zM884.458902 0.004l9.331271 9.331271-60.239294 60.243293-9.335271-9.335271z" fill="#4A555F" p-id="2941"></path><path d="M212.463401 483.622217l9.335271 9.335271-60.239294 60.239294-9.331271-9.331271zM161.587376 0.071994l60.235294 60.235294-9.331271 9.335271L152.252105 9.403265z" fill="#4A555F" p-id="2942"></path><path d="M707.984689 188.065307l-198.78447-72.794313L316.015311 188.065307l-4.799625-12.399031 197.984533-74.394188 203.584095 74.394188z" fill="#4A555F" p-id="2943"></path></svg>
